<svg width="631" height="192" viewBox="0 0 631 192" fill="none" xmlns="http://www.w3.org/2000/svg">
<path d="M93.3339 105.391H68.2077L55.6445 127.12L68.2077 148.85H93.3339L105.843 127.12L93.3339 105.391Z" fill="#ED8913"/>
<path d="M52.6249 82.0442H27.4987L14.9355 103.774L27.4987 125.503H52.6249L65.1342 103.774L52.6249 82.0442Z" fill="#ED8913"/>
<path d="M93.3339 58.6973H68.2077L55.6445 80.4266L68.2077 102.156H93.3339L105.843 80.4266L93.3339 58.6973Z" fill="#ED8913"/>
<path d="M174.697 105.391H149.625L137.062 127.12L149.625 148.85H174.697L187.261 127.12L174.697 105.391Z" fill="#ED8913"/>
<path d="M133.989 82.0442H108.917L96.3535 103.774L108.917 125.503H133.989L146.552 103.774L133.989 82.0442Z" fill="#ED8913"/>
<path d="M174.697 58.6973H149.625L137.062 80.4266L149.625 102.156H174.697L187.261 80.4266L174.697 58.6973Z" fill="#ED8913"/>
<path d="M133.989 128.738H108.917L96.3535 150.467L108.917 172.197H133.989L146.552 150.467L133.989 128.738Z" fill="#ED8913"/>
<path d="M127.464 23.2185H122.773V55.8395H127.464V23.2185Z" fill="#ED8913"/>
<path d="M136.415 23.542V55.5699C143.91 54.1141 149.571 47.482 149.571 39.5559C149.571 31.6298 143.91 24.9978 136.415 23.542Z" fill="#ED8913"/>
<path d="M153.777 37.6148L150.812 35.9434C151.081 37.1296 151.189 38.3697 151.189 39.6099C151.189 40.85 151.081 42.0901 150.812 43.2763L153.777 41.6049L157.174 39.6638L153.777 37.6148Z" fill="#ED8913"/>
<path d="M134.258 23.2724C133.935 23.2724 133.611 23.2185 133.234 23.2185H129.567V55.8395H133.234C133.557 55.8395 133.935 55.8395 134.258 55.7856V23.2724Z" fill="#ED8913"/>
<path d="M114.686 23.2184C113.176 23.2184 111.72 23.434 110.372 23.8115L104.98 18.2578C104.765 18.0421 104.495 17.8804 104.225 17.8265L100.397 16.802C99.5344 16.5863 98.6717 17.0716 98.4021 17.9343C98.1865 18.797 98.6717 19.6597 99.5344 19.9293L102.931 20.8459L107.083 25.1594C106.328 25.5369 105.627 25.9682 104.98 26.5074L98.6178 22.6792C98.3482 22.5174 98.0786 22.4635 97.809 22.4635H93.8729C92.9563 22.4635 92.2554 23.1644 92.2554 24.0811C92.2554 24.9977 92.9563 25.6986 93.8729 25.6986H97.3777L102.554 28.8259C99.9658 31.7376 98.4021 35.5119 98.4021 39.6637C98.4021 48.6142 105.735 56.0011 114.74 56.0011H120.725V23.2184H114.686ZM106.867 38.5314C105.412 38.5314 104.225 37.3451 104.225 35.8893C104.225 34.4335 105.412 33.2473 106.867 33.2473C108.323 33.2473 109.509 34.4335 109.509 35.8893C109.509 37.3451 108.323 38.5314 106.867 38.5314Z" fill="#ED8913"/>
<path d="M137.871 1.92044C143.802 -1.42254 150.757 -0.29024 153.399 4.45463C156.041 9.19951 153.399 15.7237 147.468 19.0128C140.459 22.9489 122.773 21.6009 122.773 21.6009C122.773 21.6009 128.974 6.88099 137.871 1.92044Z" fill="#ED8913"/>
<path d="M121.264 21.0077C121.533 20.3607 127.788 5.6947 137.062 0.518474C137.386 0.356717 137.709 0.19496 137.979 0.0332031C135.714 0.0332031 133.288 0.680231 131.023 1.92037C122.126 6.93484 115.926 21.6008 115.926 21.6008C115.926 21.6008 117.975 21.7626 120.886 21.8165L121.264 21.0077Z" fill="#ED8913"/>
<path d="M34.3462 159.148H29.6553V191.769H34.3462V159.148Z" fill="#ED8913"/>
<path d="M20.7587 159.418V191.446C13.2639 189.99 7.60243 183.358 7.60243 175.432C7.54851 167.56 13.2639 160.928 20.7587 159.418Z" fill="#ED8913"/>
<path d="M3.3969 173.491L6.36245 171.819C6.09285 173.006 5.98501 174.246 5.98501 175.486C5.98501 176.726 6.09285 177.966 6.36245 179.152L3.3969 177.481L0 175.54L3.3969 173.491Z" fill="#ED8913"/>
<path d="M22.8618 159.148C23.1853 159.148 23.5088 159.094 23.8863 159.094H27.5528V191.715H23.8863C23.5628 191.715 23.1853 191.715 22.8618 191.662V159.148Z" fill="#ED8913"/>
<path d="M36.4492 159.148V191.769H42.4342C51.3848 191.769 58.7717 184.436 58.7717 175.432C58.7717 171.28 57.208 167.506 54.6199 164.594L59.7962 161.467H63.3009C64.2175 161.467 64.9185 160.766 64.9185 159.849C64.9185 158.933 64.2175 158.232 63.3009 158.232H59.3648C59.0952 158.232 58.7717 158.285 58.556 158.447L52.1936 162.275C51.5465 161.79 50.8456 161.359 50.0907 160.928L54.2425 156.614L57.6394 155.697C58.5021 155.482 58.9874 154.565 58.7717 153.702C58.556 152.84 57.6394 152.354 56.7767 152.57L52.9484 153.595C52.6788 153.648 52.4093 153.81 52.1936 154.026L46.8556 159.633C45.4537 159.256 44.0518 159.04 42.5421 159.04H36.4492V159.148ZM47.6105 171.765C47.6105 170.309 48.7967 169.123 50.2525 169.123C51.7083 169.123 52.8945 170.309 52.8945 171.765C52.8945 173.221 51.7083 174.407 50.2525 174.407C48.7967 174.407 47.6105 173.221 47.6105 171.765Z" fill="#ED8913"/>
<path d="M19.2493 137.796C13.3182 134.453 6.3627 135.586 3.72066 140.331C1.07863 145.075 3.72066 151.6 9.65176 154.889C16.6612 158.825 34.3467 157.477 34.3467 157.477C34.3467 157.477 28.146 142.811 19.2493 137.796Z" fill="#ED8913"/>
<path d="M35.856 156.884C35.5864 156.237 29.3318 141.571 20.0577 136.394C19.7342 136.233 19.4107 136.071 19.1411 135.909C21.4057 135.909 23.8321 136.556 26.0967 137.796C34.9933 142.811 41.194 157.477 41.194 157.477C41.194 157.477 39.1451 157.639 36.2334 157.692L35.856 156.884Z" fill="#ED8913"/>
<path d="M551.974 155.049V36.7205H630.595V55.7801H573.575V86.1167H627.418V105.176H573.575V135.989H630.595V155.049H551.974Z" fill="black"/>
<path d="M448.983 155.049V36.7205H493.138C501.185 36.7205 508.28 38.2029 514.421 41.1677C520.668 44.0267 525.539 48.2621 529.033 53.8741C532.528 59.3803 534.275 66.1041 534.275 74.0456C534.275 81.8812 532.475 88.605 528.875 94.217C525.38 99.7231 520.562 103.959 514.421 106.923C508.28 109.888 501.185 111.371 493.138 111.371H470.584V155.049H448.983ZM470.584 92.3111H493.455C497.373 92.3111 500.762 91.5699 503.621 90.0874C506.479 88.4991 508.703 86.3285 510.291 83.5754C511.88 80.8223 512.674 77.6457 512.674 74.0456C512.674 70.3395 511.88 67.1629 510.291 64.5158C508.703 61.7627 506.479 59.645 503.621 58.1626C500.762 56.5743 497.373 55.7801 493.455 55.7801H470.584V92.3111Z" fill="black"/>
<path d="M404.622 155.049V36.7205H426.223V155.049H404.622Z" fill="black"/>
<path d="M337.212 156.955C328.741 156.955 320.906 155.42 313.705 152.349C306.611 149.278 300.364 144.99 294.963 139.484C289.669 133.977 285.54 127.518 282.575 120.106C279.61 112.694 278.127 104.594 278.127 95.8053C278.127 87.0167 279.557 78.9163 282.416 71.5042C285.381 63.9863 289.51 57.5272 294.805 52.127C300.205 46.6208 306.505 42.3854 313.705 39.4205C320.906 36.3498 328.741 34.8145 337.212 34.8145C345.683 34.8145 353.254 36.2439 359.925 39.1029C366.702 41.9618 372.42 45.7737 377.079 50.5386C381.738 55.1977 385.073 60.3332 387.085 65.9452L367.708 74.9985C365.484 69.0689 361.725 64.1981 356.431 60.3861C351.136 56.4683 344.73 54.5094 337.212 54.5094C329.8 54.5094 323.235 56.2565 317.517 59.7508C311.905 63.2451 307.511 68.0629 304.334 74.2044C301.264 80.3458 299.728 87.5461 299.728 95.8053C299.728 104.064 301.264 111.318 304.334 117.565C307.511 123.706 311.905 128.524 317.517 132.019C323.235 135.513 329.8 137.26 337.212 137.26C344.73 137.26 351.136 135.354 356.431 131.542C361.725 127.624 365.484 122.701 367.708 116.771L387.085 125.824C385.073 131.436 381.738 136.625 377.079 141.39C372.42 146.049 366.702 149.808 359.925 152.667C353.254 155.525 345.683 156.955 337.212 156.955Z" fill="black"/>
<path d="M237.261 155.049V36.7205H258.862V155.049H237.261Z" fill="black"/>
</svg>
