<svg width="333" height="79" viewBox="0 0 333 79" fill="none" xmlns="http://www.w3.org/2000/svg">
<path d="M14.7755 13.2766L5.55922 7.96338C2.56883 12.0669 0.804015 16.3602 0.215743 20.8195C-0.54411 26.4648 0.853038 30.7818 2.07861 34.6006C3.1326 37.9214 4.06403 40.7678 3.59831 44.4443C3.32869 46.6977 2.59335 48.9036 1.36778 51.1096L10.5841 56.4228C17.3247 48.0972 13.8931 39.3683 12.0547 33.5332C9.67713 26.0141 10.388 20.013 14.8 13.3003L14.7755 13.2766Z" fill="url(#paint0_linear_608_4809)"/>
<path d="M47.0561 34.0074C47.3502 31.4931 49.017 28.4095 50.7083 25.9427L41.5165 20.6295C39.0899 24.306 36.6142 27.1998 36.075 31.1136C35.3151 36.7826 37.7172 42.0247 38.9183 45.8198C39.9723 49.1406 40.8792 51.9869 40.4135 55.6635C40.0948 58.415 39.0163 61.119 37.3005 63.7756L46.4678 69.0889C48.968 65.1988 50.5122 61.1428 51.0514 56.8969C51.7868 51.0381 50.3896 46.6263 49.164 42.76C48.1101 39.4155 46.6884 37.0672 47.0561 33.9599V34.0074Z" fill="url(#paint1_linear_608_4809)"/>
<path d="M31.151 20.0598C29.3862 22.8825 28.4302 25.6577 28.2587 28.4092C28.0626 31.8485 29.1166 34.434 30.4402 37.7073C31.9354 41.5025 33.6512 45.772 33.357 51.6782C33.1609 55.7106 32.0824 59.5769 30.1215 63.3721C29.7784 64.0362 29.3862 64.7952 28.945 65.4594C27.0821 68.6141 24.582 71.674 21.4935 74.6627L12.0076 69.1834C15.1696 66.4082 17.6207 63.6093 19.3365 60.7866C19.8022 60.1225 20.1944 59.3871 20.5376 58.6993C21.8367 56.185 22.523 53.6944 22.6456 51.1564C22.8171 47.4561 21.6651 44.6809 20.3905 41.4788C18.8953 37.731 17.204 33.5089 17.5227 27.8162C17.7923 23.5941 19.0914 19.4431 21.5426 15.3871C21.9347 14.7229 22.3269 14.035 22.7681 13.3709C25.1457 9.93152 28.2096 6.58704 32.0334 3.33743L41.7644 8.98273C37.7446 11.9951 34.6316 15.0787 32.4011 18.0674C31.9109 18.7078 31.4942 19.372 31.102 20.0361L31.151 20.0598Z" fill="url(#paint2_linear_608_4809)"/>
<path d="M135.03 62.0367C137.767 59.2396 139.995 55.999 141.693 52.3304C143.74 47.9189 144.755 43.1922 144.755 38.1854C144.755 33.1786 143.844 28.8993 142.002 24.7328C142.002 24.7289 142.002 24.725 141.994 24.7211C141.994 24.7094 141.99 24.7017 141.986 24.6939C141.103 22.6048 140.027 20.6441 138.762 18.8195C137.498 16.9911 136.049 15.295 134.411 13.735C134.407 13.7272 134.399 13.7233 134.395 13.7155C134.387 13.7116 134.383 13.7077 134.379 13.6999H134.375C131.156 10.5255 127.379 8.07848 123.068 6.36287C123.064 6.36287 123.056 6.35509 123.052 6.35509C123.044 6.3512 123.036 6.34731 123.028 6.34342C118.737 4.56167 114.133 3.67468 109.244 3.67468C104.355 3.67468 99.6186 4.56167 95.2595 6.3512C95.2595 6.3512 95.2568 6.35249 95.2515 6.35509H95.2435C93.108 7.21873 91.0931 8.26132 89.2025 9.49065C87.3119 10.7161 85.5458 12.1283 83.9041 13.7155C80.6769 16.8472 78.1441 20.5196 76.3098 24.7055V24.7133L76.3057 24.7211C74.5195 28.8915 73.6365 33.3848 73.6365 38.1854C73.6365 42.986 74.5195 47.5026 76.2977 51.7235L76.3057 51.743L76.3178 51.7625C78.1481 55.8862 80.6729 59.5469 83.888 62.7253L83.9041 62.7408L83.9242 62.7564C87.2036 65.8725 90.9766 68.3195 95.2314 70.0974L95.2715 70.1129C99.6267 71.8402 104.291 72.6922 109.244 72.6922C112.708 72.6922 116.032 72.2487 119.203 71.35H119.219L119.235 71.3422C121.719 70.607 124.055 69.6733 126.243 68.5412L129.458 72.2954L130.317 73.2952L131.646 73.1162L138.911 72.1358L143.198 71.5562L140.428 68.3312L135.03 62.0367ZM130.831 47.6426C129.948 49.7395 128.808 51.6302 127.419 53.3263L122.309 47.3859L121.442 46.3744L120.102 46.5728L112.837 47.6426L108.59 48.2651L111.351 51.4512L118.625 59.8387C117.653 60.2549 116.642 60.6051 115.586 60.8891C113.603 61.4259 111.492 61.6982 109.244 61.6982C105.868 61.6982 102.762 61.0991 99.8916 59.9243C97.0537 58.7377 94.5611 57.0999 92.3936 55.0031C90.2862 52.8517 88.6165 50.3464 87.3802 47.4676C86.2201 44.616 85.6261 41.5271 85.6261 38.1854C85.6261 34.8436 86.2201 31.6886 87.3802 28.907C88.6165 26.0205 90.2903 23.5462 92.3895 21.4533C94.5611 19.2942 97.0577 17.6291 99.8876 16.4465C102.762 15.2677 105.868 14.6725 109.244 14.6725C112.62 14.6725 115.694 15.2716 118.496 16.4426C121.326 17.6252 123.782 19.2864 125.89 21.4299L125.91 21.4533L125.93 21.4727C128.081 23.5579 129.743 26.0205 130.911 28.8837L130.923 28.907L130.935 28.9343C132.143 31.708 132.766 34.7814 132.766 38.1854C132.766 41.5894 132.119 44.7055 130.843 47.6076L133.059 48.5218L130.831 47.6426Z" fill="url(#paint3_linear_608_4809)"/>
<path d="M325.944 13.4041C325.944 13.4041 325.939 13.4002 325.935 13.4002C325.931 13.3963 325.927 13.3924 325.923 13.3924C321.255 9.4088 314.769 7.58426 306.821 7.58426C302.928 7.58426 299.042 8.07832 295.169 9.05868C291.303 10.0351 287.153 11.5679 282.726 13.6336L280.538 14.6529L281.61 16.7653L284.969 23.3983L286.049 25.5262L288.229 24.4486C291.725 22.7175 294.848 21.5037 297.605 20.784L296.975 18.5315L297.645 20.7723C300.483 19.9748 303.261 19.5858 305.978 19.5858C310.831 19.5858 314.118 20.7062 316.242 22.5813L316.258 22.593L316.274 22.6085L317.859 20.8618H317.868L316.274 22.6085C318.321 24.3592 319.541 27.1174 319.541 31.3305V35.3959C314.833 33.6063 309.747 32.7194 304.3 32.7194C296.594 32.7194 290.183 34.3805 285.315 37.9635C280.361 41.6087 277.881 46.6582 277.881 52.8555C277.881 56.7652 278.92 60.2937 281.056 63.3553L281.068 63.3748L281.084 63.3942C283.267 66.3936 286.21 68.7006 289.842 70.3345H289.85L289.862 70.3423C293.587 71.9762 297.818 72.7581 302.498 72.7581C306.5 72.7581 310.257 72.1824 313.741 70.9997H313.753L313.773 70.9881C315.796 70.2723 317.715 69.3541 319.541 68.261V71.7117H333V30.1673C333 23.1454 330.736 17.4345 325.944 13.4041ZM319.541 55.9288C317.554 57.7028 315.391 59.006 313.051 59.8657C310.398 60.8383 307.411 61.3441 304.06 61.3441C299.961 61.3441 296.818 60.4259 294.446 58.7726C292.227 57.0998 291.219 55.1002 291.219 52.622C291.219 49.9416 292.267 47.9226 294.45 46.3509L293.013 44.4758L294.458 46.3431C296.802 44.6392 300.086 43.6705 304.541 43.6705C307.881 43.6705 310.815 44.0401 313.364 44.7442L313.392 44.752L313.424 44.7598L314.022 42.4995L313.42 44.7598C315.555 45.2928 317.591 46.1292 319.537 47.269V55.9288H319.541Z" fill="url(#paint4_linear_608_4809)"/>
<path d="M214.922 38.3176C214.922 32.0348 213.481 26.2927 210.563 21.142C210.563 21.1342 210.551 21.1303 210.547 21.1225C210.547 21.1148 210.543 21.107 210.539 21.1031C209.13 18.5122 207.456 16.1858 205.513 14.1278C203.575 12.0737 201.371 10.2842 198.902 8.77479L198.89 8.76312C198.89 8.76312 198.87 8.75145 198.858 8.74367C193.941 5.61199 188.382 4.05588 182.253 4.05588C176.123 4.05588 170.203 5.6081 165.045 8.72422C165.037 8.72811 165.033 8.732 165.029 8.73589C165.029 8.73589 165.021 8.73978 165.017 8.73978C162.46 10.2492 160.164 12.0348 158.133 14.0928C156.102 16.1508 154.336 18.4772 152.839 21.0759C152.839 21.0759 152.835 21.0836 152.831 21.0914C151.321 23.6707 150.189 26.4017 149.439 29.2727C148.684 32.1476 148.311 35.1665 148.311 38.3176C148.311 44.7171 149.856 50.572 152.975 55.8161L155.042 54.6607L155.062 54.6529L152.975 55.8161L152.983 55.8316L152.991 55.8433C156.17 61.0368 160.409 65.1955 165.691 68.2844L165.711 68.2961L165.735 68.3078C171.142 71.3266 177.139 72.8283 183.662 72.8283C188.482 72.8283 192.958 72.1786 197.064 70.852L196.301 68.6345H196.305L197.064 70.852L197.08 70.8442H197.096C201.255 69.4398 205.212 67.3858 208.969 64.6976L211.149 63.1376L209.295 61.2236L203.422 55.1586L201.825 53.5091L200.075 55.003C198.232 56.5747 195.896 57.8351 193.006 58.7416C190.1 59.6558 187.114 60.1148 184.047 60.1148C180.258 60.1148 176.826 59.294 173.711 57.6795C170.568 55.9639 168.011 53.6725 166.016 50.7743C164.563 48.5763 163.524 46.1565 162.902 43.4955H214.926V38.3176H214.922ZM163.255 31.529C163.909 29.1599 164.904 27.0436 166.237 25.1568L166.245 25.1451L166.253 25.1334C168.096 22.4569 170.371 20.4067 173.081 18.9479C175.77 17.5007 178.728 16.7654 182 16.7654C185.271 16.7654 187.997 17.524 190.59 19.0335L190.614 19.0451L190.634 19.0568C193.255 20.5079 195.446 22.5464 197.209 25.219L197.229 25.2501L197.249 25.2813C198.573 27.1525 199.541 29.2299 200.147 31.529H163.255Z" fill="url(#paint5_linear_608_4809)"/>
<path d="M274.326 32.4943V71.7123H260.747V34.2372C260.747 29.4988 259.374 26.0793 256.89 23.6712L256.866 23.6517L256.845 23.6284C254.429 21.162 251.037 19.8159 246.345 19.8159C243.114 19.8159 240.332 20.5084 237.936 21.835C235.684 23.0838 233.769 24.8422 232.188 27.1413V71.7123H218.484V8.74806H232.188V12.5605C236.768 9.23435 242.323 7.58487 248.745 7.58487C251.194 7.58487 253.522 7.84552 255.722 8.3746C257.917 8.90367 259.984 9.70118 261.907 10.7788C261.911 10.7827 261.915 10.7866 261.919 10.7866C261.935 10.7944 261.947 10.8021 261.963 10.8099C263.902 11.8408 265.628 13.0935 267.137 14.5524C268.642 16.0151 269.931 17.6879 270.999 19.5669C271.007 19.5786 271.011 19.5942 271.019 19.6058C271.023 19.6136 271.027 19.6175 271.031 19.6214C273.254 23.36 274.326 27.6743 274.326 32.4943Z" fill="url(#paint6_linear_608_4809)"/>
<defs>
<linearGradient id="paint0_linear_608_4809" x1="-1.34823" y1="27.7712" x2="18.6449" y2="27.9557" gradientUnits="userSpaceOnUse">
<stop stop-color="#FF1FE3"/>
<stop offset="1" stop-color="#9B03FF"/>
</linearGradient>
<linearGradient id="paint1_linear_608_4809" x1="34.5332" y1="40.4373" x2="55.2369" y2="40.6351" gradientUnits="userSpaceOnUse">
<stop stop-color="#FF1FE3"/>
<stop offset="1" stop-color="#9B03FF"/>
</linearGradient>
<linearGradient id="paint2_linear_608_4809" x1="9.29688" y1="32.4917" x2="49.4921" y2="32.9982" gradientUnits="userSpaceOnUse">
<stop stop-color="#FF1FE3"/>
<stop offset="1" stop-color="#9B03FF"/>
</linearGradient>
<linearGradient id="paint3_linear_608_4809" x1="64.1748" y1="43.1508" x2="171.157" y2="67.246" gradientUnits="userSpaceOnUse">
<stop stop-color="#FF1FE3"/>
<stop offset="1" stop-color="#9B03FF"/>
</linearGradient>
<linearGradient id="paint4_linear_608_4809" x1="270.548" y1="44.539" x2="354.741" y2="60.2383" gradientUnits="userSpaceOnUse">
<stop stop-color="#FF1FE3"/>
<stop offset="1" stop-color="#9B03FF"/>
</linearGradient>
<linearGradient id="paint5_linear_608_4809" x1="139.448" y1="43.0511" x2="240.146" y2="64.5567" gradientUnits="userSpaceOnUse">
<stop stop-color="#FF1FE3"/>
<stop offset="1" stop-color="#9B03FF"/>
</linearGradient>
<linearGradient id="paint6_linear_608_4809" x1="211.055" y1="43.9463" x2="296.18" y2="60.2897" gradientUnits="userSpaceOnUse">
<stop stop-color="#FF1FE3"/>
<stop offset="1" stop-color="#9B03FF"/>
</linearGradient>
</defs>
</svg>
